<?xml version="1.0" standalone="no"?>
<!DOCTYPE svg PUBLIC "-//W3C//DTD SVG 20010904//EN"
 "http://www.w3.org/TR/2001/REC-SVG-20010904/DTD/svg10.dtd">
<svg version="1.0" xmlns="http://www.w3.org/2000/svg"
 width="405.000000pt" height="405.000000pt" viewBox="0 0 405.000000 405.000000"
 preserveAspectRatio="xMidYMid meet">
<metadata>
Created by potrace 1.14, written by Peter Selinger 2001-2017
</metadata>
<g transform="translate(0.000000,405.000000) scale(0.100000,-0.100000)"
fill="#000000" stroke="none">
<path d="M0 2025 l0 -2025 2025 0 2025 0 0 2025 0 2025 -2025 0 -2025 0 0
-2025z m1010 1712 c0 -14 34 -17 46 -4 4 3 20 -3 36 -14 l29 -21 28 26 c22 21
37 26 79 26 29 0 52 -4 52 -10 0 -5 7 -6 17 -3 10 4 14 2 9 -5 -10 -16 13 -25
29 -12 8 7 24 10 35 7 11 -3 20 -1 20 3 0 4 16 8 35 7 25 -1 37 -6 41 -20 4
-14 9 -16 20 -6 7 6 12 15 9 19 -8 13 17 18 75 16 67 -2 80 -6 100 -30 14 -16
17 -17 29 -2 7 9 19 16 26 16 8 0 16 6 19 13 3 9 8 7 15 -5 7 -10 19 -14 31
-11 13 4 26 -1 33 -12 12 -15 14 -15 25 9 10 22 18 26 53 26 32 0 42 -4 46
-20 4 -14 14 -20 34 -20 26 0 56 -29 43 -43 -3 -2 11 -15 31 -27 26 -16 35
-28 33 -44 -2 -11 3 -26 11 -32 11 -9 11 -14 -5 -32 -10 -12 -26 -22 -35 -22
-18 0 -45 -52 -35 -68 3 -5 -6 -7 -19 -4 -19 3 -25 -1 -31 -22 -3 -14 -10 -26
-16 -26 -5 0 -7 -4 -4 -9 7 -10 -16 -21 -44 -21 -11 0 -24 -8 -29 -17 -8 -14
-10 -15 -11 -3 0 13 -2 13 -9 0 -6 -8 -7 -18 -5 -22 3 -4 -3 -5 -12 -1 -12 4
-15 3 -10 -5 4 -7 1 -12 -8 -12 -9 0 -21 -8 -27 -19 -8 -12 -19 -16 -32 -13
-17 4 -19 1 -15 -16 5 -19 2 -22 -20 -22 -21 0 -23 -3 -12 -10 22 -14 1 -62
-35 -79 -17 -8 -33 -20 -38 -27 -4 -7 -14 -11 -22 -8 -9 4 -15 0 -15 -9 0 -8
-6 -17 -14 -20 -7 -3 -16 -19 -19 -35 -8 -38 -35 -65 -58 -59 -11 3 -19 0 -20
-6 -2 -34 -11 -62 -22 -69 -9 -6 -9 -8 2 -8 8 0 11 -6 6 -17 -3 -10 -7 -22 -8
-28 -1 -5 -6 -13 -10 -16 -9 -6 13 -99 23 -99 4 0 5 -13 2 -29 -2 -16 1 -32 7
-35 6 -4 11 -20 11 -37 0 -16 5 -29 13 -29 6 0 3 -7 -8 -16 -18 -14 -18 -14
10 -8 26 5 33 1 47 -24 10 -16 15 -32 12 -34 -3 -3 6 -18 21 -34 16 -18 24
-35 20 -48 -3 -12 -2 -15 1 -8 10 21 22 13 17 -10 -4 -19 -3 -20 6 -8 6 9 11
10 11 3 0 -6 10 -13 23 -15 12 -2 21 -9 20 -15 -2 -7 3 -10 11 -7 18 7 34 -15
50 -67 7 -24 18 -43 25 -41 6 1 19 -11 29 -28 11 -16 22 -27 27 -22 4 4 6 -5
3 -20 -3 -15 -1 -29 4 -30 5 -2 10 -19 10 -38 0 -19 5 -43 9 -52 6 -10 5 -19
-1 -23 -5 -3 -10 -11 -10 -17 0 -7 5 -7 14 1 11 9 15 7 19 -9 3 -11 12 -20 21
-20 9 0 18 -12 22 -27 4 -16 11 -36 16 -46 8 -16 11 -16 41 0 18 9 48 17 67
17 26 1 34 5 32 16 -2 8 -1 12 3 8 4 -4 23 2 42 13 20 11 41 18 48 15 8 -3 16
1 19 9 3 8 -3 16 -12 18 -10 3 -5 5 11 6 15 0 30 7 33 15 3 8 12 12 20 9 8 -3
14 1 14 11 0 9 7 16 15 16 8 0 15 3 15 8 0 12 59 34 75 28 8 -3 12 0 9 7 -4
11 35 40 79 59 9 4 17 17 17 28 0 12 4 19 9 16 5 -3 14 1 21 9 7 8 22 15 35
15 12 0 25 3 29 7 8 8 12 9 40 12 14 1 29 62 16 71 -14 10 -19 39 -6 34 7 -3
13 2 13 11 0 8 -4 15 -9 15 -4 0 -8 34 -8 75 0 41 4 75 9 75 5 0 9 11 9 24 0
14 7 32 16 41 21 21 20 31 -1 40 -17 6 -17 7 0 20 13 9 15 15 7 20 -9 6 -9 10
1 16 12 8 12 10 0 18 -10 6 -10 10 -1 16 8 5 6 11 -7 21 -17 14 -17 14 0 25
16 9 17 13 4 32 -16 26 -14 111 3 132 7 9 8 15 2 15 -18 0 -24 34 -7 46 11 8
13 14 5 19 -8 5 -8 11 1 21 9 11 8 14 -6 14 -13 0 -15 3 -6 13 6 8 8 17 4 21
-4 4 -1 12 7 17 12 8 12 12 2 16 -10 4 -10 8 -1 19 9 11 8 14 -5 14 -21 0 -21
16 0 24 13 5 14 9 5 20 -9 11 -9 16 0 21 8 6 8 10 -2 15 -18 12 -20 100 -3
107 19 7 18 23 -2 23 -8 0 -12 5 -9 11 4 6 13 8 21 5 8 -3 14 -1 14 4 0 6 -9
10 -20 10 -13 0 -20 7 -20 20 0 11 5 20 11 20 6 0 9 7 5 15 -3 9 0 15 9 15 23
0 29 22 9 33 -22 13 -84 16 -84 5 0 -4 -7 -8 -16 -8 -9 0 -12 5 -8 12 4 6 3 8
-4 4 -17 -10 -122 -16 -122 -6 0 5 -17 4 -37 -2 -33 -9 -39 -8 -56 13 -10 13
-16 31 -14 41 3 11 0 18 -9 18 -8 0 -14 7 -14 15 0 8 8 15 17 15 9 0 24 6 32
14 9 8 30 18 46 21 27 7 28 6 12 -6 -16 -13 -15 -14 8 -14 14 0 25 6 25 14 0
11 3 11 15 1 8 -7 15 -9 15 -5 0 5 9 0 21 -11 20 -18 21 -18 34 0 8 10 18 15
24 12 5 -3 15 0 23 7 19 19 109 14 120 -8 7 -12 17 -15 41 -10 18 4 36 11 41
16 15 14 26 11 26 -8 0 -15 1 -15 19 1 16 15 19 15 31 1 14 -17 40 -20 40 -4
0 5 5 7 10 4 6 -3 13 1 16 10 4 10 14 15 25 12 11 -3 22 -1 25 4 9 15 21 10
27 -11 4 -15 14 -20 36 -20 21 0 31 -5 31 -15 0 -9 -9 -15 -25 -15 -27 0 -30
-6 -15 -44 8 -22 6 -26 -24 -36 -18 -6 -40 -8 -49 -4 -10 3 -17 1 -17 -5 0 -6
-7 -11 -16 -11 -8 0 -12 4 -9 10 4 6 -2 7 -17 1 -13 -4 -47 -8 -75 -9 -40 -1
-55 3 -63 16 -9 16 -9 16 -10 0 0 -10 -4 -18 -10 -18 -5 0 -10 -7 -10 -17 0
-9 3 -14 6 -10 9 9 34 -19 34 -37 0 -8 5 -18 10 -21 16 -10 12 -25 -7 -26 -11
0 -13 -3 -5 -6 6 -2 9 -10 5 -16 -4 -6 -7 -29 -8 -51 -1 -23 -5 -49 -9 -59 -5
-10 -4 -23 2 -30 6 -7 13 -26 16 -42 2 -17 5 -32 6 -35 8 -22 -1 -82 -14 -109
-16 -31 -16 -34 -1 -51 10 -11 14 -24 9 -31 -10 -17 -12 -68 -3 -101 6 -21 4
-25 -7 -21 -8 3 -14 1 -14 -5 0 -6 5 -12 11 -14 6 -2 12 -16 12 -31 1 -15 4
-27 7 -27 8 0 4 -89 -4 -97 -3 -4 -6 -15 -6 -26 0 -11 -7 -29 -17 -39 -9 -10
-11 -18 -5 -18 7 0 9 -20 6 -57 -3 -32 -5 -65 -5 -73 0 -8 -6 -26 -12 -39 -9
-19 -9 -25 1 -28 6 -3 10 -9 6 -14 -3 -5 -4 -9 -2 -9 2 0 18 -4 36 -9 17 -5
32 -6 32 -1 0 5 -8 11 -17 13 -12 3 -9 5 8 6 15 0 32 8 39 16 7 8 16 15 21 15
5 0 27 13 51 29 36 25 44 27 56 14 13 -12 16 -11 29 7 10 14 21 19 35 15 14
-5 21 -1 25 15 4 15 8 18 13 10 4 -7 13 -9 19 -6 6 4 9 12 6 17 -4 5 4 5 19
-1 22 -8 25 -6 31 21 4 17 14 33 23 36 10 4 19 10 22 14 3 4 18 11 33 14 19 5
27 3 27 -6 0 -8 6 -5 15 7 8 11 15 14 15 7 0 -19 20 -16 20 2 0 9 7 18 15 21
8 4 15 12 15 20 0 13 6 15 50 18 8 1 16 11 18 24 3 18 10 22 37 22 22 0 35 -6
39 -17 6 -15 10 -13 31 12 14 15 25 22 25 15 0 -11 3 -11 12 -2 17 17 48 15
48 -4 0 -8 4 -13 9 -9 5 3 12 1 16 -4 3 -6 12 -8 20 -4 10 3 15 -2 15 -16 0
-12 5 -21 10 -21 6 0 10 -9 10 -20 0 -11 -4 -20 -9 -20 -5 0 -8 -11 -8 -25 0
-14 3 -25 8 -25 5 0 9 -9 9 -20 0 -11 -5 -20 -10 -20 -7 0 -7 -7 0 -21 9 -16
8 -24 -3 -37 -15 -18 -12 -46 4 -36 5 3 9 0 9 -5 0 -6 -5 -11 -10 -11 -7 0 -7
-6 -1 -17 29 -54 37 -139 14 -147 -19 -8 -16 -29 7 -44 11 -7 20 -17 20 -23 0
-5 -4 -7 -10 -4 -13 8 -13 -1 -1 -24 5 -9 6 -23 2 -30 -5 -7 -5 -29 -1 -50 6
-34 5 -38 -12 -33 -10 2 -18 0 -18 -6 0 -13 25 -33 34 -27 3 3 2 0 -3 -6 -6
-7 -6 -21 0 -37 12 -30 9 -121 -3 -128 -5 -3 -3 -13 4 -22 7 -9 8 -13 2 -9 -7
4 -17 1 -23 -6 -8 -10 -6 -19 7 -33 17 -19 21 -61 9 -81 -4 -6 -2 -24 3 -42 5
-19 5 -29 -1 -26 -5 4 -13 3 -19 0 -6 -3 3 -18 19 -33 l30 -27 1 -205 c1 -113
1 -214 1 -224 0 -11 -6 -23 -13 -27 -34 -21 21 -31 170 -29 104 1 122 -1 122
-15 0 -10 -10 -15 -27 -16 -16 0 -22 -3 -15 -6 14 -6 16 -81 2 -103 -9 -14
-110 -24 -108 -11 2 19 -3 24 -11 12 -12 -19 -91 -27 -91 -9 0 7 -11 14 -25
14 -21 2 -24 -1 -14 -12 16 -19 4 -18 -15 2 -15 14 -16 14 -16 0 0 -20 -17
-20 -37 -1 -12 13 -18 13 -31 3 -8 -7 -34 -14 -58 -14 -34 -1 -41 1 -36 14 4
11 1 14 -12 9 -10 -4 -15 -3 -11 3 3 6 1 10 -4 10 -6 0 -11 -6 -11 -12 0 -7
-5 -20 -10 -28 -8 -13 -11 -12 -24 5 -8 11 -20 20 -28 20 -8 0 -13 12 -14 32
0 18 -3 36 -7 39 -13 13 -7 44 8 44 8 0 15 4 15 9 0 5 41 9 90 8 82 0 124 9
93 20 -8 3 -11 14 -7 27 3 12 -2 35 -10 51 -20 38 -20 45 2 45 13 0 14 2 3 9
-15 10 -26 121 -11 121 5 0 7 7 4 15 -4 10 0 15 11 15 17 0 17 1 0 20 -10 11
-14 20 -9 20 5 0 3 4 -5 9 -12 8 -12 12 -2 25 7 8 10 20 6 26 -3 5 -1 10 4 10
6 0 2 9 -9 20 -22 22 -26 40 -9 40 8 0 8 4 0 14 -6 7 -9 21 -5 30 3 9 1 16 -5
16 -15 0 -14 113 1 128 9 9 9 12 -2 12 -13 0 -13 2 0 10 10 6 11 10 3 10 -7 0
-13 7 -13 15 0 8 6 15 13 16 9 0 9 2 -1 6 -10 4 -10 8 -1 20 10 11 10 16 1 22
-14 8 -12 53 3 64 6 4 5 11 -5 18 -12 9 -13 12 -1 16 11 5 11 7 0 14 -12 8
-12 11 0 18 12 8 12 12 2 25 -11 12 -11 16 -1 16 10 0 10 3 1 14 -15 18 -12
156 3 156 6 0 4 5 -4 10 -9 6 -11 13 -5 18 12 8 13 32 2 49 -4 7 -9 53 -9 103
-1 49 -5 90 -9 90 -4 0 -7 22 -6 50 2 59 -16 86 -39 56 -12 -17 -17 -18 -39
-8 -34 16 -34 16 -27 -10 4 -17 2 -20 -11 -15 -10 4 -17 3 -17 -1 -1 -4 -10
-18 -20 -31 -16 -18 -23 -21 -34 -12 -10 8 -17 6 -31 -9 -10 -11 -21 -17 -25
-15 -13 8 -40 -6 -40 -21 0 -8 -7 -17 -15 -20 -8 -4 -15 -12 -15 -20 0 -8 -4
-14 -9 -14 -5 0 -18 -3 -28 -6 -15 -5 -16 -4 -3 6 12 9 10 10 -10 4 -14 -4
-28 -12 -32 -18 -4 -6 -8 -7 -8 -3 0 5 -7 1 -16 -7 -8 -9 -24 -16 -34 -16 -10
0 -22 -5 -26 -11 -4 -7 -10 -7 -16 -1 -14 14 -58 3 -52 -13 4 -10 -1 -12 -15
-8 -13 3 -21 1 -21 -8 0 -7 -3 -10 -6 -6 -9 9 -34 -19 -34 -37 0 -18 -16 -21
-26 -5 -4 8 -9 8 -17 0 -6 -6 -21 -11 -34 -11 -13 0 -22 -3 -22 -7 5 -31 -4
-56 -21 -60 -14 -4 -20 -14 -21 -37 0 -17 -1 -50 -2 -73 -1 -22 1 -39 5 -37 3
2 4 -13 2 -33 -3 -21 -5 -49 -4 -62 0 -13 -5 -30 -11 -37 -7 -9 -6 -21 5 -41
9 -18 11 -34 6 -43 -5 -9 -5 -17 0 -20 6 -4 6 -18 1 -36 -4 -16 -5 -38 -1 -49
4 -11 3 -28 -2 -37 -6 -13 -5 -18 4 -18 9 0 10 -2 1 -8 -6 -4 -11 -18 -12 -32
0 -14 -2 -38 -4 -55 -2 -16 1 -36 6 -42 6 -8 6 -13 -1 -13 -6 0 -7 -13 -2 -36
5 -20 7 -66 6 -102 -2 -50 -6 -68 -21 -78 -16 -12 -17 -17 -5 -39 10 -19 10
-27 1 -39 -8 -10 -9 -16 -1 -21 13 -8 13 -45 0 -45 -5 0 -10 -5 -10 -11 0 -5
5 -7 10 -4 6 3 10 1 10 -4 0 -6 -4 -11 -10 -11 -5 0 -10 -7 -10 -15 0 -8 -6
-15 -12 -16 -10 0 -10 -2 0 -6 6 -2 12 -11 12 -19 0 -8 -6 -14 -12 -14 -7 0 0
-7 16 -15 31 -16 91 -21 82 -6 -4 5 3 7 14 4 14 -4 20 0 20 11 0 9 6 17 13 17
79 9 98 6 111 -13 13 -19 14 -19 20 -1 4 12 17 19 37 20 27 2 30 -1 26 -17 -3
-11 -1 -20 4 -20 6 0 7 -21 3 -53 -4 -28 -7 -58 -7 -64 0 -7 -8 -13 -18 -13
-13 0 -16 6 -11 23 5 20 4 21 -11 8 -9 -7 -17 -10 -17 -5 0 5 -7 1 -15 -10
-17 -22 -65 -15 -65 10 0 8 -5 12 -10 9 -6 -4 -8 -15 -5 -26 5 -14 0 -20 -22
-25 -15 -3 -35 -8 -43 -11 -8 -4 -18 -5 -22 -5 -5 1 -8 -5 -8 -13 0 -18 -40
-20 -41 -2 0 9 -2 9 -6 -1 -4 -10 -8 -9 -17 4 -11 15 -14 15 -28 0 -9 -9 -27
-15 -40 -15 -17 1 -18 3 -5 6 9 2 17 9 17 15 0 6 -9 8 -22 3 -13 -3 -49 -8
-80 -10 -49 -3 -56 -1 -51 13 4 13 1 12 -10 -3 -16 -20 -16 -20 -17 5 l-1 25
-11 -22 c-6 -13 -14 -23 -18 -23 -18 0 -31 32 -28 67 3 36 2 38 -29 41 -25 2
-33 8 -33 23 0 15 7 19 39 19 25 0 41 5 45 15 7 18 36 20 36 3 0 -9 4 -8 10 2
7 11 10 11 10 2 0 -9 5 -10 16 -4 9 5 25 7 35 5 15 -4 19 0 19 18 0 20 2 21
11 9 7 -11 8 -3 4 29 -5 32 -3 46 6 52 10 6 10 9 2 9 -7 0 -10 7 -7 15 4 8 1
15 -5 15 -7 0 -7 8 -1 26 6 14 10 41 10 60 0 19 5 34 12 34 6 0 8 3 5 7 -4 3
-2 12 3 18 8 9 6 14 -5 19 -14 5 -14 8 0 29 15 24 12 55 -8 68 -4 3 -2 13 7
21 16 16 18 58 3 58 -5 0 -4 6 2 14 8 10 8 15 1 18 -15 5 2 114 18 110 16 -3
16 15 0 20 -20 7 -21 127 -2 135 13 5 13 7 2 14 -11 8 -11 10 1 18 9 6 10 10
2 16 -9 5 -9 10 0 21 9 11 8 14 -3 14 -11 0 -15 14 -15 60 0 33 4 60 8 60 5 0
4 12 -2 26 -5 15 -7 34 -4 43 12 40 -30 53 -52 16 l-12 -20 -8 20 c-7 18 -8
17 -13 -10 -3 -20 -12 -31 -30 -35 -14 -4 -24 -13 -22 -20 3 -11 0 -11 -12 0
-13 10 -16 10 -16 0 0 -18 -40 -50 -62 -50 -10 0 -18 -4 -18 -10 0 -5 -8 -10
-18 -10 -10 0 -24 -9 -32 -21 -19 -27 -73 -55 -78 -41 -4 12 -42 -22 -42 -38
0 -5 -9 -10 -20 -10 -13 0 -24 -10 -31 -26 -5 -15 -12 -24 -15 -21 -3 3 -20 1
-37 -4 -54 -17 -91 -19 -99 -6 -5 8 -8 6 -8 -5 0 -10 -4 -18 -9 -18 -4 0 -7
-11 -6 -25 2 -13 -3 -29 -11 -35 -11 -10 -11 -15 2 -35 13 -20 13 -24 -1 -35
-20 -16 -19 -40 1 -40 14 0 14 -2 3 -16 -11 -13 -11 -17 3 -25 22 -12 12 -107
-13 -132 -11 -10 -19 -27 -19 -38 0 -11 -4 -18 -9 -15 -21 13 -37 -5 -33 -38
2 -19 -1 -37 -7 -40 -6 -4 -11 -2 -11 4 0 6 -11 5 -30 -5 -16 -9 -30 -12 -30
-8 -1 5 -6 -2 -14 -15 -11 -21 -14 -22 -25 -8 -21 25 -34 19 -29 -15 4 -26 2
-30 -14 -26 -10 3 -16 2 -13 -3 2 -4 -7 -20 -21 -35 -20 -22 -36 -28 -72 -30
-26 -1 -49 -4 -52 -5 -3 -1 -9 -2 -14 -1 -5 1 -13 -4 -17 -11 -6 -10 -13 -10
-26 -2 -21 13 -53 -10 -53 -38 0 -10 -7 -18 -15 -18 -9 0 -18 -7 -22 -16 -3
-9 -15 -14 -32 -12 -14 1 -33 -2 -41 -7 -12 -7 -10 -11 10 -16 17 -6 12 -7
-17 -4 -24 2 -43 -1 -43 -6 0 -5 -9 -9 -20 -9 -11 0 -20 -4 -20 -10 0 -5 -5
-10 -12 -10 -6 0 -20 -7 -30 -16 -14 -13 -21 -14 -32 -5 -11 10 -18 8 -35 -10
-11 -12 -19 -25 -16 -28 2 -4 -11 -7 -28 -6 -22 0 -31 4 -29 14 2 8 -3 11 -10
8 -51 -21 -48 -24 -48 57 l0 76 33 0 c20 0 42 9 57 23 17 16 33 21 57 19 20
-3 38 2 47 11 8 8 34 15 58 15 23 1 44 5 46 11 2 5 10 7 18 4 9 -3 14 2 14 15
0 23 25 46 40 37 5 -3 10 1 10 9 0 9 5 16 10 16 6 0 10 7 10 15 0 14 12 19 33
16 4 0 7 3 7 9 0 5 14 10 30 10 17 0 30 -5 30 -12 0 -9 3 -10 8 -2 10 15 72
35 72 24 0 -6 10 -6 26 0 14 6 30 8 35 4 5 -3 9 2 9 11 0 16 52 75 66 75 4 0
16 7 26 17 14 13 18 13 18 2 0 -8 8 0 16 18 10 20 21 30 30 26 8 -3 14 0 14 6
0 6 -6 11 -12 12 -10 0 -10 2 0 6 6 2 12 11 12 19 0 9 -5 12 -11 9 -6 -4 -5 3
3 15 10 18 10 24 1 27 -7 3 -13 12 -12 21 0 11 2 12 6 5 2 -7 8 -13 12 -13 10
0 1 59 -10 66 -13 7 -11 44 1 44 6 0 5 6 -2 14 -11 12 -14 11 -20 -5 -4 -10
-14 -19 -23 -19 -8 0 -15 -4 -15 -10 0 -5 -18 -15 -40 -21 -28 -9 -40 -18 -40
-31 0 -12 -12 -24 -31 -32 -22 -9 -27 -15 -18 -19 8 -4 -8 -4 -35 0 -34 4 -47
2 -42 -5 4 -6 -2 -16 -13 -21 -28 -15 -30 -14 -23 12 l5 22 -23 -20 c-16 -14
-24 -16 -27 -7 -3 9 -12 7 -30 -8 -14 -11 -34 -20 -44 -20 -10 0 -21 -5 -24
-10 -4 -6 -11 -8 -16 -5 -5 4 -9 1 -9 -5 0 -6 -11 -15 -25 -20 -14 -5 -25 -14
-25 -20 0 -5 -11 -10 -25 -10 -15 0 -24 -5 -23 -12 2 -7 -3 -12 -9 -10 -7 1
-13 -5 -13 -13 0 -8 -11 -17 -25 -21 -14 -3 -25 -12 -25 -20 0 -8 -7 -14 -15
-14 -8 0 -15 -4 -15 -10 0 -5 -6 -10 -14 -10 -8 0 -16 -6 -19 -13 -6 -17 -143
-22 -153 -6 -3 6 1 18 10 28 10 11 14 25 10 35 -4 9 2 33 12 52 18 33 34 44
34 24 0 -5 5 -10 11 -10 14 0 39 26 39 40 0 8 11 11 30 8 29 -4 43 14 20 25
-6 3 -5 4 2 3 7 -1 22 8 34 21 12 13 28 23 37 23 9 0 19 5 22 10 3 6 17 10 31
10 13 0 24 5 24 12 0 6 7 3 15 -8 14 -19 14 -19 15 2 0 19 53 67 75 69 6 1 19
5 29 10 14 6 23 3 32 -10 13 -18 19 -11 16 16 -1 4 7 5 17 2 13 -3 21 2 26 16
4 15 15 21 35 21 16 0 36 7 44 16 9 8 20 12 26 9 5 -3 10 1 10 10 0 14 6 16
28 11 19 -5 23 -4 12 3 -12 8 -11 11 5 16 11 4 33 14 49 22 27 15 30 15 43 -3
14 -19 14 -18 11 1 -2 11 -7 23 -13 27 -5 4 0 8 12 8 20 0 21 3 13 28 -5 15
-11 45 -14 67 -2 21 -8 41 -13 42 -35 12 -45 32 -50 96 -4 49 -10 67 -20 67
-10 0 -12 6 -8 20 9 28 -12 65 -29 51 -17 -14 -81 11 -90 35 -5 13 -9 14 -22
4 -11 -10 -18 -10 -26 -2 -16 16 -28 15 -28 -3 0 -19 -17 -19 -37 0 -14 14
-16 14 -27 0 -9 -13 -17 -14 -39 -6 -17 7 -27 7 -27 1 0 -6 -7 -10 -15 -10 -9
0 -12 6 -8 18 6 16 5 16 -14 0 -24 -22 -52 -23 -60 -2 -3 8 -12 13 -19 10 -8
-3 -14 -1 -14 4 0 6 -5 10 -11 10 -6 0 -9 -7 -6 -15 4 -8 2 -17 -4 -21 -6 -3
-13 3 -16 15 -4 17 -14 21 -47 23 -22 0 -49 1 -58 0 -10 -1 -18 4 -18 10 0 9
-3 9 -12 0 -7 -7 -32 -12 -57 -12 -32 0 -42 3 -31 10 8 5 11 12 7 16 -3 4 -14
1 -22 -6 -14 -12 -20 -9 -42 16 -23 26 -25 27 -20 7 3 -16 1 -23 -9 -23 -8 0
-14 7 -14 15 0 14 -3 14 -24 0 -18 -12 -26 -13 -32 -4 -4 7 -3 9 4 5 6 -3 13
-2 16 3 13 20 -25 19 -44 -1 -20 -21 -21 -21 -38 -4 -9 11 -11 16 -4 12 7 -4
12 -1 12 7 0 10 -11 14 -32 14 -87 -1 -118 6 -119 27 0 20 -1 20 -9 -1 -11
-27 -25 -29 -38 -8 -4 9 -24 18 -44 22 -34 5 -36 4 -31 -16 4 -16 1 -21 -16
-21 -17 0 -21 -7 -23 -37 -1 -21 -1 -47 0 -58 2 -39 -8 -65 -23 -59 -12 5 -14
0 -9 -24 5 -24 2 -31 -13 -36 -11 -4 -20 -12 -21 -19 -1 -6 -4 -28 -6 -47 -9
-75 -19 -121 -27 -126 -5 -3 -9 -14 -9 -25 0 -11 4 -17 10 -14 5 3 10 -1 10
-9 0 -9 -6 -13 -13 -10 -9 3 -18 -10 -27 -38 -7 -24 -22 -52 -32 -64 -10 -11
-18 -28 -18 -37 0 -9 -4 -19 -10 -22 -16 -10 -12 -28 5 -21 21 8 19 0 -6 -25
-15 -15 -19 -28 -14 -50 4 -19 3 -29 -5 -29 -7 0 -10 -7 -6 -16 3 -8 2 -12 -4
-9 -19 12 -32 -7 -13 -20 14 -11 15 -15 4 -29 -7 -9 -14 -29 -16 -45 -1 -16
-9 -37 -18 -46 -10 -9 -17 -24 -16 -33 0 -14 2 -13 9 3 8 19 9 19 9 -2 1 -13
-3 -23 -8 -23 -6 0 -9 -12 -8 -27 2 -23 -3 -28 -28 -33 -36 -7 -67 -1 -59 11
3 5 -2 17 -11 26 -10 9 -14 25 -11 38 3 12 0 30 -8 40 -11 15 -10 21 6 37 10
10 18 27 18 37 0 10 7 22 16 25 11 4 15 14 12 31 -3 13 -2 26 2 27 4 2 10 30
14 63 7 69 34 135 56 135 10 0 11 3 4 8 -14 9 -14 45 0 54 6 4 11 13 12 20 0
7 2 23 2 35 2 16 10 25 29 29 16 4 31 12 35 18 13 18 9 36 -7 36 -18 0 -18 1
-1 47 8 21 17 55 21 76 5 29 10 37 27 37 15 0 18 3 11 13 -16 21 -14 60 3 53
11 -4 14 2 13 27 -5 65 1 97 16 97 8 0 15 9 15 20 0 11 -5 20 -11 20 -6 0 -4
7 4 15 9 8 13 24 10 35 -6 22 8 26 37 10 20 -11 39 3 20 15 -15 9 -12 35 3 35
15 0 16 3 20 77 2 34 10 59 22 73 16 17 17 23 5 30 -11 7 -10 11 3 24 9 9 14
22 11 29 -2 7 4 22 14 32 9 11 16 28 14 39 -7 33 18 66 51 66 25 0 27 2 17 15
-13 16 -1 61 32 123 12 22 18 54 18 97 0 60 2 67 34 100 19 19 43 35 53 36 15
0 14 2 -4 9 -26 11 -30 28 -8 36 8 4 15 12 15 20 0 8 7 14 16 14 12 0 14 3 6
13 -6 7 -10 27 -10 45 1 21 4 28 9 20 11 -18 24 -2 25 35 5 104 11 149 19 155
6 4 12 16 13 27 2 11 8 24 13 30 5 5 9 17 9 27 0 14 8 18 38 18 32 0 39 4 51
33 8 17 19 35 25 39 17 12 36 9 36 -5z m-400 -827 c0 -5 -5 -10 -11 -10 -5 0
-7 5 -4 10 3 6 8 10 11 10 2 0 4 -4 4 -10z m-20 -30 c0 -5 -4 -10 -10 -10 -5
0 -10 5 -10 10 0 6 5 10 10 10 6 0 10 -4 10 -10z m3107 -632 c-3 -8 -6 -5 -6
6 -1 11 2 17 5 13 3 -3 4 -12 1 -19z m-3407 -288 c0 -5 -4 -10 -10 -10 -5 0
-10 5 -10 10 0 6 5 10 10 10 6 0 10 -4 10 -10z m-150 -410 c0 -5 -5 -10 -11
-10 -5 0 -7 5 -4 10 3 6 8 10 11 10 2 0 4 -4 4 -10z m1207 -366 c-3 -3 -12 -4
-19 -1 -8 3 -5 6 6 6 11 1 17 -2 13 -5z m1403 -84 c0 -5 -2 -10 -4 -10 -3 0
-8 5 -11 10 -3 6 -1 10 4 10 6 0 11 -4 11 -10z"/>
<path d="M1950 3679 c0 -4 11 -6 25 -6 13 0 22 3 20 8 -6 9 -45 8 -45 -2z"/>
<path d="M1007 3613 c-4 -3 -7 -15 -7 -26 0 -13 -5 -17 -16 -13 -10 4 -13 2
-8 -6 5 -8 2 -9 -10 -5 -10 4 -15 3 -11 -3 3 -6 1 -10 -5 -10 -6 0 -8 -5 -5
-10 4 -6 11 -8 16 -5 14 9 11 -2 -6 -19 -13 -12 -22 -69 -25 -143 0 -7 -7 -10
-15 -7 -12 5 -15 -4 -15 -44 0 -67 -14 -104 -36 -95 -14 5 -16 3 -11 -12 5
-11 -2 -34 -18 -61 -14 -24 -21 -44 -15 -44 6 0 4 -10 -5 -24 -8 -13 -13 -31
-9 -40 3 -9 1 -16 -6 -16 -7 0 -9 -8 -5 -19 7 -24 -3 -51 -20 -51 -8 0 -21
-24 -29 -55 -12 -41 -20 -53 -32 -48 -8 3 -14 2 -13 -3 4 -22 -2 -34 -16 -34
-18 0 -20 -17 -2 -23 9 -3 6 -17 -11 -52 -17 -35 -20 -50 -11 -55 8 -6 7 -10
-6 -17 -10 -6 -18 -26 -21 -51 -2 -22 -4 -44 -5 -49 -1 -4 -1 -22 0 -39 1 -29
4 -32 59 -44 65 -16 102 -36 102 -56 0 -12 5 -11 25 2 14 9 25 14 25 11 0 -3
16 -1 35 3 26 6 39 4 50 -7 8 -8 19 -12 24 -9 5 3 11 -2 14 -13 3 -14 11 -17
38 -13 19 3 37 9 40 15 4 6 24 2 51 -12 49 -23 62 -26 53 -11 -5 7 16 10 62 8
66 -3 68 -4 65 -28 -3 -24 -2 -24 12 -5 15 20 15 19 16 -5 1 -24 2 -24 10 -4
7 18 16 21 75 19 39 0 69 -6 74 -13 5 -8 12 -5 25 10 10 11 14 23 9 27 -12 8
-27 60 -24 85 2 11 -2 17 -11 14 -16 -6 -37 20 -38 47 0 12 -5 26 -12 33 -6 6
-12 22 -14 34 -1 13 -13 54 -27 93 -14 38 -23 72 -18 75 4 3 8 23 9 45 2 29 0
36 -8 25 -7 -11 -10 -11 -10 -2 0 7 7 24 16 37 10 16 14 36 11 53 -4 21 -1 31
13 40 13 8 17 18 13 29 -5 12 -2 15 10 10 15 -6 30 17 24 35 -1 4 8 14 20 23
12 8 24 29 28 45 4 17 11 30 16 30 5 0 9 5 9 11 0 16 31 38 53 39 10 0 15 5
12 11 -4 6 2 13 14 16 11 3 18 9 15 14 -6 11 11 45 23 43 4 -1 7 2 5 7 -1 5 5
9 13 9 8 0 14 3 13 8 -2 12 14 42 23 42 4 0 6 -7 3 -15 -4 -8 -1 -15 5 -15 6
0 11 5 11 11 0 5 4 8 9 5 4 -3 16 14 26 38 10 24 27 48 37 55 12 7 17 8 13 2
-3 -6 -1 -11 4 -11 6 0 11 6 11 13 0 8 11 20 25 27 18 10 22 16 13 21 -7 4 -9
11 -6 15 4 3 1 18 -6 33 -17 31 -56 69 -56 53 0 -17 -69 -15 -76 2 -3 7 -16
14 -30 14 -25 0 -33 -13 -11 -21 6 -3 2 -6 -10 -6 -15 -1 -23 5 -23 16 0 14
-2 14 -20 -2 -18 -16 -20 -16 -26 -1 -8 20 -24 21 -24 1 0 -8 -9 -15 -19 -15
-15 0 -18 5 -14 23 4 18 3 19 -6 7 -6 -8 -11 -10 -11 -5 0 6 -4 4 -9 -4 -6 -9
-28 -15 -54 -16 -37 -2 -44 0 -39 13 4 12 1 14 -12 9 -10 -4 -20 -7 -22 -7 -3
0 -2 -4 1 -10 3 -5 -3 -10 -14 -10 -12 0 -21 6 -21 13 0 7 -9 13 -20 13 -13 0
-19 -5 -16 -13 3 -7 1 -13 -4 -13 -6 0 -10 7 -10 15 0 18 -12 19 -28 3 -9 -9
-12 -9 -12 0 0 7 -5 12 -11 12 -5 0 -7 -6 -3 -12 5 -9 2 -9 -9 1 -15 12 -17
11 -17 -3 0 -13 -12 -16 -75 -16 -64 0 -75 3 -75 17 0 15 -2 14 -15 -3 -14
-18 -14 -18 -10 4 4 23 3 26 -8 15z m413 -563 c0 -5 -5 -10 -11 -10 -5 0 -7 5
-4 10 3 6 8 10 11 10 2 0 4 -4 4 -10z m-620 -580 c0 -5 -2 -10 -4 -10 -3 0 -8
5 -11 10 -3 6 -1 10 4 10 6 0 11 -4 11 -10z"/>
<path d="M1150 3606 c0 -9 5 -16 10 -16 6 0 10 4 10 9 0 6 -4 13 -10 16 -5 3
-10 -1 -10 -9z"/>
<path d="M1908 3373 c7 -3 16 -2 19 1 4 3 -2 6 -13 5 -11 0 -14 -3 -6 -6z"/>
<path d="M1581 3124 c0 -11 3 -14 6 -6 3 7 2 16 -1 19 -3 4 -6 -2 -5 -13z"/>
<path d="M776 3001 c-4 -7 -5 -15 -2 -18 9 -9 19 4 14 18 -4 11 -6 11 -12 0z"/>
<path d="M3435 2690 c-3 -5 1 -10 9 -10 9 0 16 5 16 10 0 6 -4 10 -9 10 -6 0
-13 -4 -16 -10z"/>
<path d="M3590 2668 c0 -18 5 -28 15 -28 19 0 19 11 0 36 -14 18 -14 18 -15
-8z"/>
<path d="M3515 2670 c-3 -5 -1 -10 4 -10 6 0 11 5 11 10 0 6 -2 10 -4 10 -3 0
-8 -4 -11 -10z"/>
<path d="M1510 2450 c0 -5 5 -10 11 -10 5 0 7 5 4 10 -3 6 -8 10 -11 10 -2 0
-4 -4 -4 -10z"/>
<path d="M2451 2084 c0 -11 3 -14 6 -6 3 7 2 16 -1 19 -3 4 -6 -2 -5 -13z"/>
<path d="M3675 1569 c-4 -6 -5 -12 -2 -15 2 -3 7 2 10 11 7 17 1 20 -8 4z"/>
<path d="M170 1420 c0 -5 5 -10 10 -10 6 0 10 5 10 10 0 6 -4 10 -10 10 -5 0
-10 -4 -10 -10z"/>
<path d="M1890 1395 c0 -8 2 -15 4 -15 2 0 6 7 10 15 3 8 1 15 -4 15 -6 0 -10
-7 -10 -15z"/>
<path d="M133 1385 c-10 -10 -9 -14 2 -19 17 -6 31 12 19 24 -5 5 -14 2 -21
-5z"/>
<path d="M2730 1329 c0 -5 5 -7 10 -4 6 3 10 8 10 11 0 2 -4 4 -10 4 -5 0 -10
-5 -10 -11z"/>
<path d="M3445 1030 c3 -5 10 -10 16 -10 5 0 9 5 9 10 0 6 -7 10 -16 10 -8 0
-12 -4 -9 -10z"/>
<path d="M3491 1024 c0 -11 3 -14 6 -6 3 7 2 16 -1 19 -3 4 -6 -2 -5 -13z"/>
<path d="M3780 960 c0 -5 5 -10 10 -10 6 0 10 5 10 10 0 6 -4 10 -10 10 -5 0
-10 -4 -10 -10z"/>
</g>
</svg>
